<mxfile host="Electron" modified="2024-10-04T22:51:14.556Z" agent="Mozilla/5.0 (Windows NT 10.0; Win64; x64) AppleWebKit/537.36 (KHTML, like Gecko) draw.io/24.2.5 Chrome/120.0.6099.109 Electron/28.1.0 Safari/537.36" etag="-_UD9rgKIM8vxtRUrASF" version="24.2.5" type="device">
  <diagram name="PÃ¡gina-1" id="3Ntoz_oiULQKgDscK9YR">
    <mxGraphModel dx="1382" dy="1029" grid="1" gridSize="10" guides="1" tooltips="1" connect="1" arrows="1" fold="1" page="1" pageScale="1" pageWidth="827" pageHeight="1169" math="0" shadow="0">
      <root>
        <mxCell id="0" />
        <mxCell id="1" parent="0" />
        <mxCell id="VO4MT5E_yZ9tPhZLBipx-1" value="Logger(singleton)" style="swimlane;fontStyle=1;align=center;verticalAlign=top;childLayout=stackLayout;horizontal=1;startSize=26;horizontalStack=0;resizeParent=1;resizeParentMax=0;resizeLast=0;collapsible=1;marginBottom=0;whiteSpace=wrap;html=1;" vertex="1" parent="1">
          <mxGeometry x="-130" y="260" width="220" height="240" as="geometry" />
        </mxCell>
        <mxCell id="VO4MT5E_yZ9tPhZLBipx-2" value="-&amp;nbsp;&lt;span style=&quot;background-color: initial;&quot;&gt;Instance&lt;/span&gt;&lt;div&gt;&lt;span style=&quot;background-color: initial;&quot;&gt;&lt;br&gt;&lt;/span&gt;&lt;/div&gt;&lt;div&gt;&lt;span style=&quot;background-color: initial;&quot;&gt;- fileDir&lt;/span&gt;&lt;/div&gt;" style="text;strokeColor=none;fillColor=none;align=left;verticalAlign=top;spacingLeft=4;spacingRight=4;overflow=hidden;rotatable=0;points=[[0,0.5],[1,0.5]];portConstraint=eastwest;whiteSpace=wrap;html=1;" vertex="1" parent="VO4MT5E_yZ9tPhZLBipx-1">
          <mxGeometry y="26" width="220" height="84" as="geometry" />
        </mxCell>
        <mxCell id="VO4MT5E_yZ9tPhZLBipx-3" value="" style="line;strokeWidth=1;fillColor=none;align=left;verticalAlign=middle;spacingTop=-1;spacingLeft=3;spacingRight=3;rotatable=0;labelPosition=right;points=[];portConstraint=eastwest;strokeColor=inherit;" vertex="1" parent="VO4MT5E_yZ9tPhZLBipx-1">
          <mxGeometry y="110" width="220" height="30" as="geometry" />
        </mxCell>
        <mxCell id="VO4MT5E_yZ9tPhZLBipx-4" value="- Logger()&lt;div&gt;+ getInstance()&lt;/div&gt;&lt;div&gt;+ writeLog(String message)&lt;/div&gt;&lt;div&gt;- getCurrentDate()&lt;/div&gt;" style="text;strokeColor=none;fillColor=none;align=left;verticalAlign=top;spacingLeft=4;spacingRight=4;overflow=hidden;rotatable=0;points=[[0,0.5],[1,0.5]];portConstraint=eastwest;whiteSpace=wrap;html=1;" vertex="1" parent="VO4MT5E_yZ9tPhZLBipx-1">
          <mxGeometry y="140" width="220" height="100" as="geometry" />
        </mxCell>
        <mxCell id="VO4MT5E_yZ9tPhZLBipx-7" style="edgeStyle=orthogonalEdgeStyle;rounded=0;orthogonalLoop=1;jettySize=auto;html=1;exitX=0.991;exitY=0.083;exitDx=0;exitDy=0;exitPerimeter=0;" edge="1" parent="VO4MT5E_yZ9tPhZLBipx-1" source="VO4MT5E_yZ9tPhZLBipx-2" target="VO4MT5E_yZ9tPhZLBipx-1">
          <mxGeometry relative="1" as="geometry">
            <Array as="points">
              <mxPoint x="300" y="33" />
              <mxPoint x="300" y="120" />
            </Array>
          </mxGeometry>
        </mxCell>
        <mxCell id="VO4MT5E_yZ9tPhZLBipx-12" style="edgeStyle=orthogonalEdgeStyle;rounded=0;orthogonalLoop=1;jettySize=auto;html=1;dashed=1;" edge="1" parent="1" source="VO4MT5E_yZ9tPhZLBipx-8" target="VO4MT5E_yZ9tPhZLBipx-1">
          <mxGeometry relative="1" as="geometry" />
        </mxCell>
        <mxCell id="VO4MT5E_yZ9tPhZLBipx-8" value="SingletonApp" style="swimlane;fontStyle=1;align=center;verticalAlign=top;childLayout=stackLayout;horizontal=1;startSize=26;horizontalStack=0;resizeParent=1;resizeParentMax=0;resizeLast=0;collapsible=1;marginBottom=0;whiteSpace=wrap;html=1;" vertex="1" parent="1">
          <mxGeometry x="-440" y="310" width="160" height="60" as="geometry" />
        </mxCell>
        <mxCell id="VO4MT5E_yZ9tPhZLBipx-10" value="" style="line;strokeWidth=1;fillColor=none;align=left;verticalAlign=middle;spacingTop=-1;spacingLeft=3;spacingRight=3;rotatable=0;labelPosition=right;points=[];portConstraint=eastwest;strokeColor=inherit;" vertex="1" parent="VO4MT5E_yZ9tPhZLBipx-8">
          <mxGeometry y="26" width="160" height="8" as="geometry" />
        </mxCell>
        <mxCell id="VO4MT5E_yZ9tPhZLBipx-11" value="main()" style="text;strokeColor=none;fillColor=none;align=left;verticalAlign=top;spacingLeft=4;spacingRight=4;overflow=hidden;rotatable=0;points=[[0,0.5],[1,0.5]];portConstraint=eastwest;whiteSpace=wrap;html=1;" vertex="1" parent="VO4MT5E_yZ9tPhZLBipx-8">
          <mxGeometry y="34" width="160" height="26" as="geometry" />
        </mxCell>
        <mxCell id="VO4MT5E_yZ9tPhZLBipx-13" value="use" style="text;html=1;align=center;verticalAlign=middle;resizable=0;points=[];autosize=1;strokeColor=none;fillColor=none;" vertex="1" parent="1">
          <mxGeometry x="-250" y="318" width="40" height="30" as="geometry" />
        </mxCell>
      </root>
    </mxGraphModel>
  </diagram>
</mxfile>
